<?xml version="1.0" encoding="UTF-8"?>
<svg width="156px" height="159px" viewBox="0 0 156 159" version="1.1" xmlns="http://www.w3.org/2000/svg" xmlns:xlink="http://www.w3.org/1999/xlink">
    <!-- Generator: Sketch 63.1 (92452) - https://sketch.com -->
    <title>FINAL Logo Design Lhotse Bildmarke@2x</title>
    <desc>Created with Sketch.</desc>
    <g id="Page-1" stroke="none" stroke-width="1" fill="none" fill-rule="evenodd">
        <g id="Desktop-HD" transform="translate(-46.000000, -262.000000)" fill="#00064A">
            <g id="FINAL-Logo-Design-Lhotse-Bildmarke" transform="translate(46.000000, 262.000000)">
                <path d="M82.339,90.758 L62.928,150.498 C61.32,155.447 66.004,160.13 70.952,158.523 L141.22,135.691 C146.168,134.083 147.204,127.541 142.995,124.483 L92.136,87.572 C88.636,85.032 83.675,86.645 82.339,90.758" id="Fill-1"></path>
                <path d="M69.322,80.15 L6.507,80.15 C1.305,80.15 -1.703,86.051 1.355,90.261 L44.783,150.034 C47.842,154.244 54.384,153.208 55.991,148.259 L75.379,88.482 C76.714,84.369 73.646,80.15 69.322,80.15" id="Fill-2"></path>
                <path d="M77.645,64.833 L58.234,5.092 C56.626,0.144 50.084,-0.893 47.025,3.317 L3.598,63.09 C0.54,67.299 3.547,73.201 8.75,73.201 L71.592,73.168 C75.917,73.166 78.981,68.945 77.645,64.833" id="Fill-3"></path>
                <path d="M94.425,70.285 L145.243,33.363 C149.452,30.305 155.354,33.312 155.354,38.515 L155.354,112.399 C155.354,117.602 149.452,120.609 145.243,117.551 L94.422,80.586 C90.925,78.043 90.926,72.827 94.425,70.285" id="Fill-4"></path>
            </g>
        </g>
    </g>
</svg>